<?xml version="1.0" encoding="UTF-8"?>
<svg width="639px" height="127px" viewBox="0 0 639 127" version="1.1" xmlns="http://www.w3.org/2000/svg" xmlns:xlink="http://www.w3.org/1999/xlink">
    <title>netjets_logo_light</title>
    <g id="playground" stroke="none" stroke-width="1" fill="none" fill-rule="evenodd">
        <g id="Logo-Copy" transform="translate(-193, -449)" fill="#FFFFFF" fill-rule="nonzero">
            <g id="netjets_logo_light" transform="translate(193, 449)">
                <path d="M626.8,0.640176394 C625.760221,1.06159054 624.817583,1.69114968 624.03,2.49017639 C623.199828,3.31676766 622.540613,4.29879457 622.09,5.38017639 C621.201096,7.50426086 621.201096,9.89609193 622.09,12.0201764 C622.999767,14.1558048 624.692108,15.862458 626.82,16.7901764 C627.873616,17.2352807 629.006227,17.4631634 630.15,17.4602054 C631.289307,17.4607074 632.417522,17.2364237 633.47,16.8001764 C634.536431,16.3562504 635.507432,15.7111797 636.33,14.9001764 C637.151792,14.1096615 637.799004,13.1558744 638.23,12.1001764 C639.092276,9.95007296 639.092276,7.55027983 638.23,5.40017639 C637.803434,4.3572353 637.17469,3.40902087 636.38,2.61017639 C635.57455,1.77069818 634.604243,1.10680406 633.53,0.660176394 C632.450971,0.219149532 631.295667,-0.00511535356 630.13,0.000176394101 C628.992957,-0.00703507172 627.865361,0.206936333 626.81,0.630176394 M633,1.88017639 C633.911474,2.2643942 634.740025,2.82128919 635.44,3.52017639 C636.121015,4.2148259 636.657976,5.03726037 637.02,5.94017639 C637.377839,6.86828734 637.55764,7.85550058 637.55,8.85017639 C637.567162,10.7974372 636.778123,12.6650707 635.37,14.0101764 C634.661497,14.6954813 633.825814,15.2356176 632.91,15.6001764 C631.988276,15.9702767 631.003228,16.157096 630.01,16.1501764 C629.063129,16.1487035 628.126815,15.9512264 627.259998,15.5701764 C626.378043,15.1805148 625.579988,14.6235743 624.91,13.9301764 C623.538085,12.5506422 622.765536,10.6857441 622.759998,8.74017639 C622.759326,7.76726236 622.956664,6.80438885 623.34,5.91017639 C623.734412,4.98807169 624.301223,4.14973447 625.01,3.44017639 C625.676183,2.76195445 626.47196,2.22463505 627.35,1.86017639 C629.175718,1.12651113 631.214282,1.12651113 633.04,1.86017639 M627.04,12.9301764 L628.92,12.9301764 L628.92,9.28017639 L630.29,9.28017639 L631.91,12.9501764 L634.02,12.9501764 L632.02,8.95017639 C633.216624,8.79008477 634.088151,7.73553725 634.02,6.53017639 C634.046203,5.81442387 633.687662,5.13929988 633.08,4.76017639 C632.230217,4.30705284 631.271118,4.09930573 630.31,4.16017639 L626.94,4.16017639 L627.04,12.9301764 Z M630.04,5.34017639 C630.597866,5.30123614 631.155512,5.41899983 631.65,5.68017639 C631.998208,5.92534548 632.191898,6.33551251 632.16,6.76017639 C632.185695,7.15684505 631.999216,7.53741398 631.67,7.76017639 C631.197217,8.01021969 630.663258,8.12117227 630.13,8.08017639 L628.89,8.08017639 L628.89,5.36017639 L630.04,5.34017639 Z" id="Shape"></path>
                <path d="M112.08,89.1101764 L165.91,89.1101764 L167.5,75.8401764 L129.6,75.8401764 L133.48,51.0701764 L163.54,51.0701764 L165.54,37.8001764 L135.54,37.8001764 L135.81,36.1101764 C136.1,34.2901764 138.76,17.3601764 138.97,15.9801764 L139.16,14.7401764 L175.91,14.7401764 L177.99,1.48017639 L125.69,1.48017639 L112.08,89.1101764 Z" id="Path"></path>
                <polygon id="Path" points="226.91 89.1101764 242.48 89.1101764 254 14.7401764 280.24 14.7401764 282.32 1.48017639 214.32 1.48017639 212.32 14.7401764 238.57 14.7401764"></polygon>
                <path d="M276.8,113.410176 L282.91,126.100176 C291.792782,124.787558 300.07142,120.820783 306.66,114.720176 C315.66,106.540176 320.47,97.0501764 323.12,81.9701764 C323.71,78.6301764 324.74,72.3101764 325.98,64.6401764 L326.46,61.6401764 C329.91,39.7301764 334.75,8.93017639 335.91,1.46017639 L319.99,1.46017639 C318.99,8.18017639 314.14,40.6801764 310.9,62.1001764 L310.45,65.1001764 C309.75,69.7001764 309.14,73.6401764 308.69,76.5001764 C304.39,103.720176 292.83,108.250176 276.8,113.410176 L276.8,113.410176 Z" id="Path"></path>
                <polygon id="Path" points="361.02 89.1101764 414.91 89.1101764 416.49 75.8401764 378.53 75.8401764 382.41 51.0701764 412.51 51.0701764 414.44 37.8001764 384.5 37.8001764 388.13 14.7401764 424.81 14.7401764 426.91 1.48017639 374.63 1.48017639"></polygon>
                <polygon id="Path" points="474.28 89.1101764 489.91 89.1101764 501.41 14.7401764 527.62 14.7401764 529.7 1.48017639 461.7 1.48017639 459.76 14.7401764 486 14.7401764"></polygon>
                <path d="M544.31,84.7901764 C552.02,87.5201764 562.96,90.8401764 573.69,90.8401764 C593.56,90.8401764 606.39,79.9901764 606.39,63.1801764 C606.39,52.0401764 596.33,45.1801764 592.01,42.7101764 L591.58,42.4601764 C583.51,37.9201764 572.46,31.6901764 572.46,25.1201764 C572.46,18.9301764 579.4,13.6901764 587.6,13.6901764 C595.16,13.6901764 602.96,16.6201764 608.6,19.1201764 L613.41,4.35017639 C604.776362,1.52270746 595.75471,0.0584602172 586.67,0.0101763941 C568.11,0.0101763941 554.11,11.4401764 554.11,26.6001764 C554.11,33.8301764 559.65,40.7601764 571.05,47.7901764 C582.05,54.5701764 585.99,57.1201764 588.25,61.1801764 C588.535478,61.7506174 588.75683,62.3509514 588.91,62.9701764 C589.010593,63.5824459 589.074042,64.2002417 589.1,64.8201764 C588.78,71.3501764 581.5,77.1801764 573.81,77.1801764 C565.72,77.1801764 557.37,73.8101764 550.11,70.3101764 L544.31,84.7901764 Z" id="Path"></path>
                <polygon id="Path" points="57.08 89.1101764 74.14 89.1101764 87.76 1.48017639 72.85 1.48017639 63.39 70.0701764 31.86 1.48017639 13.61 1.48017639 0 89.1101764 15 89.1101764 24.47 20.7301764"></polygon>
            </g>
        </g>
    </g>
</svg>