<svg width="272" height="56" viewBox="0 0 272 56" fill="none" xmlns="http://www.w3.org/2000/svg">
<path fill-rule="evenodd" clip-rule="evenodd" d="M50.0872 39.3338H74.2297L74.9434 33.5083H57.9411L59.6807 22.6359H73.16L74.045 16.8126H60.6141L60.7343 16.0722C60.8652 15.2725 62.0546 7.8424 62.1488 7.23672L62.2335 6.69336H78.6915L79.625 0.874894H56.1774L50.0872 39.3338Z" fill="white"/>
<path fill-rule="evenodd" clip-rule="evenodd" d="M100.172 39.3338H107.029L112.103 6.69336H123.659L124.573 0.874894H94.6142L93.7506 6.69336H105.311L100.172 39.3338Z" fill="white"/>
<path fill-rule="evenodd" clip-rule="evenodd" d="M122.361 50.406L125.112 56C127.379 55.6349 131.508 54.7749 135.787 50.981C139.852 47.3719 141.993 43.1878 143.184 36.5371C143.448 35.0646 143.913 32.278 144.468 28.8956L144.684 27.577C146.258 17.9104 148.409 4.32905 148.931 1.03569H141.776C141.325 4.00006 139.148 18.3328 137.691 27.7772L137.489 29.0931C137.176 31.1208 136.899 32.8601 136.697 34.12C134.762 46.1323 129.568 48.1291 122.361 50.406Z" fill="white"/>
<path fill-rule="evenodd" clip-rule="evenodd" d="M160.533 39.3338H184.676L185.385 33.5083H168.384L170.124 22.6359H183.617L184.484 16.8126H171.059L172.686 6.69336H189.136L190.071 0.874894H166.634L160.533 39.3338Z" fill="white"/>
<path fill-rule="evenodd" clip-rule="evenodd" d="M210.609 39.3338H217.482L222.56 6.69336H234.104L235.019 0.874894H205.051L204.197 6.69336H215.756L210.609 39.3338Z" fill="white"/>
<path fill-rule="evenodd" clip-rule="evenodd" d="M241.575 37.8042C244.969 39.022 249.787 40.5033 254.512 40.5033C263.259 40.5033 268.91 35.6635 268.91 28.1688C268.91 23.2001 264.481 20.1292 262.578 19.0404L262.387 18.9302C258.833 16.9045 253.968 14.1297 253.968 11.197C253.968 8.43463 257.023 6.10213 260.636 6.10213C263.966 6.10213 267.4 7.40728 269.88 8.52337L272 1.9361C268.154 0.668403 264.098 0 260.225 0C252.055 0 245.89 5.09752 245.89 11.8551C245.89 15.0812 248.329 18.1708 253.347 21.302C258.198 24.3269 259.925 25.4644 260.92 27.2726C260.972 27.38 261.148 27.759 261.21 28.0689C261.27 28.3503 261.295 28.8925 261.295 28.8925C261.155 31.8047 257.948 34.4052 254.565 34.4052C251.003 34.4052 247.327 32.9038 244.129 31.3423L241.575 37.8042Z" fill="white"/>
<path fill-rule="evenodd" clip-rule="evenodd" d="M24.9909 40.173H32.4582L38.42 1.04574H31.8943L27.7535 31.6752L13.9461 1.04574H5.95603L0 40.173H6.57816L10.723 9.64002L24.9909 40.173Z" fill="white"/>
</svg>
